<svg width="28" height="28" viewBox="0 0 28 28" fill="none" xmlns="http://www.w3.org/2000/svg">
<path d="M26.4723 3.3404H22.569C22.1261 1.53737 20.4964 0.195712 18.5582 0.195712C16.6199 0.195712 14.9902 1.53737 14.5473 3.3404H1.21C0.666018 3.3404 0.225009 3.78141 0.225009 4.32539C0.225009 4.86937 0.666018 5.31038 1.21 5.31038H14.5473C14.9902 7.11341 16.6199 8.45506 18.5582 8.45506C20.4964 8.45506 22.1261 7.11341 22.569 5.31038H26.4723C27.0163 5.31038 27.4573 4.86937 27.4573 4.32539C27.4573 3.78141 27.0163 3.3404 26.4723 3.3404ZM18.5582 6.48508C17.3689 6.48508 16.4008 5.51839 16.3985 4.32968C16.3985 4.32829 16.3985 4.32685 16.3985 4.32539C16.3985 4.32392 16.3985 4.32249 16.3985 4.32109C16.4008 3.13238 17.3689 2.16569 18.5582 2.16569C19.7489 2.16569 20.7179 3.13471 20.7179 4.32539C20.7179 5.51607 19.7489 6.48508 18.5582 6.48508Z" fill="#7C5832" stroke="#7C5832" stroke-width="0.397638"/>
<path d="M26.4723 12.827H13.135C12.6921 11.0239 11.0624 9.68228 9.12412 9.68228C7.18585 9.68228 5.55618 11.0239 5.11328 12.827H1.21C0.666018 12.827 0.225009 13.268 0.225009 13.812C0.225009 14.3559 0.666018 14.7969 1.21 14.7969H5.11328C5.55613 16.6 7.18586 17.9416 9.12412 17.9416C11.0624 17.9416 12.6921 16.6 13.135 14.7969H26.4723C27.0163 14.7969 27.4573 14.3559 27.4573 13.812C27.4573 13.268 27.0163 12.827 26.4723 12.827ZM9.12412 15.9717C7.93486 15.9717 6.96676 15.005 6.96443 13.8163C6.96446 13.8149 6.96448 13.8134 6.96448 13.812C6.96448 13.8105 6.96446 13.8091 6.96443 13.8077C6.96675 12.619 7.93486 11.6523 9.12412 11.6523C10.3148 11.6523 11.2838 12.6213 11.2838 13.812C11.2838 15.0026 10.3148 15.9717 9.12412 15.9717Z" fill="#7C5832" stroke="#7C5832" stroke-width="0.397638"/>
<path d="M26.4723 22.315H22.569C22.1262 20.512 20.4964 19.1703 18.5582 19.1703C16.6199 19.1703 14.9902 20.512 14.5473 22.315H1.21C0.666018 22.315 0.225009 22.756 0.225009 23.3C0.225009 23.844 0.666018 24.285 1.21 24.285H14.5473C14.9902 26.088 16.6199 27.4297 18.5582 27.4297C20.4964 27.4297 22.1261 26.088 22.569 24.285H26.4723C27.0163 24.285 27.4573 23.844 27.4573 23.3C27.4573 22.756 27.0163 22.315 26.4723 22.315ZM18.5582 25.4597C17.3689 25.4597 16.4008 24.493 16.3985 23.3043C16.3985 23.3029 16.3985 23.3015 16.3985 23.3C16.3985 23.2985 16.3985 23.2971 16.3985 23.2957C16.4008 22.107 17.3689 21.1403 18.5582 21.1403C19.7489 21.1403 20.7179 22.1093 20.7179 23.3C20.7179 24.4907 19.7489 25.4597 18.5582 25.4597Z" fill="#7C5832" stroke="#7C5832" stroke-width="0.397638"/>
</svg>
