<svg width="28" height="28" viewBox="0 0 28 28" fill="none" xmlns="http://www.w3.org/2000/svg">
<g clip-path="url(#clip0_38_1416)">
<path d="M9.97123 4.55888L1.64107 0.185547C0.913837 0.457826 0.215332 1.35017 0.215332 2.38022V21.0536C0.215332 21.8706 0.61582 22.6076 1.28859 23.056L7.6964 27.1214C9.22845 28.163 11.429 27.0831 11.429 25.119V6.78559C11.429 5.84039 10.9003 5.02339 9.97123 4.55888ZM8.2251 15.4575C8.2251 15.9002 7.86685 16.2585 7.42412 16.2585C6.98139 16.2585 6.62314 15.9002 6.62314 15.4575V12.2536C6.62314 11.8109 6.98139 11.4526 7.42412 11.4526C7.86685 11.4526 8.2251 11.8109 8.2251 12.2536V15.4575Z" fill="#7C5832"/>
<path d="M27.2383 13.2176L21.6069 9.28604C21.1023 8.78142 20.2396 9.13877 20.2396 9.85233V12.2537H13.8317C13.3894 12.2537 13.0308 12.6122 13.0308 13.0547V14.6566C13.0308 15.099 13.3894 15.4576 13.8317 15.4576H20.2396V17.8589C20.2396 18.5725 21.1022 18.9298 21.6068 18.4253L27.2383 14.4936C27.6607 14.1731 27.6607 13.538 27.2383 13.2176Z" fill="#7C5832"/>
<path d="M13.0308 17.0596V24.3218H15.4337C16.7587 24.3218 17.8366 23.2439 17.8366 21.9188V17.0596C15.0276 17.0596 15.845 17.0596 13.0308 17.0596Z" fill="#7C5832"/>
<path d="M15.4336 0.185547H5.08691L10.6842 3.12428L10.6872 3.12582C10.6874 3.12593 10.6875 3.12609 10.6875 3.12609L10.7154 3.14067C12.1546 3.85957 13.0307 5.22764 13.0307 6.78581V10.6516C15.8449 10.6516 15.0275 10.6516 17.8365 10.6516V2.58848C17.8365 1.26345 16.7586 0.185547 15.4336 0.185547Z" fill="#7C5832"/>
</g>
<defs>
<clipPath id="clip0_38_1416">
<rect width="27.34" height="27.34" fill="white" transform="translate(0.214844 0.185547)"/>
</clipPath>
</defs>
</svg>
