<svg width="24" height="24" viewBox="0 0 24 24" fill="none" xmlns="http://www.w3.org/2000/svg">
<g clip-path="url(#clip0_72_3374)">
<path d="M1.04636 7.62785C1.49274 7.62785 1.85444 7.26605 1.85444 6.81977V3.37434L7.059 8.57783C7.21685 8.73556 7.42361 8.81443 7.63037 8.81443C7.83724 8.81443 8.04411 8.73556 8.20184 8.57772C8.51743 8.26214 8.51743 7.75046 8.20174 7.43499L2.99695 2.23139H6.44314C6.88942 2.23139 7.25122 1.86959 7.25122 1.42331C7.25122 0.977038 6.88952 0.615234 6.44314 0.615234H1.04636C0.599977 0.615234 0.238281 0.977038 0.238281 1.42331V6.81988C0.238281 7.26605 0.599977 7.62785 1.04636 7.62785Z" fill="#7C5832"/>
<path d="M22.633 16.8049C22.1866 16.8049 21.8249 17.1667 21.8249 17.613V21.0585L16.4601 15.6937C16.1444 15.3781 15.6328 15.3781 15.3173 15.6937C15.0017 16.0093 15.0017 16.521 15.3173 16.8364L20.6819 22.2011H17.2366C16.7902 22.2011 16.4285 22.5629 16.4285 23.0092C16.4285 23.4555 16.7902 23.8173 17.2366 23.8173H22.6331C23.0794 23.8173 23.4411 23.4555 23.4411 23.0092V17.613C23.441 17.1667 23.0792 16.8049 22.633 16.8049Z" fill="#7C5832"/>
<path d="M7.21917 15.6937L1.85493 21.0584V17.613C1.85493 17.1667 1.49323 16.8049 1.04685 16.8049C0.600466 16.8049 0.23877 17.1667 0.23877 17.613V23.0094C0.23877 23.4557 0.600466 23.8175 1.04685 23.8175H6.44309C6.88937 23.8175 7.25117 23.4557 7.25117 23.0094C7.25117 22.5632 6.88947 22.2014 6.44309 22.2014H2.99766L8.36201 16.8365C8.67759 16.5209 8.67759 16.0092 8.3619 15.6936C8.04653 15.3781 7.53486 15.3781 7.21917 15.6937Z" fill="#7C5832"/>
<path d="M22.6329 0.615234H17.2364C16.79 0.615234 16.4283 0.977038 16.4283 1.42331C16.4283 1.86959 16.79 2.23139 17.2364 2.23139H20.6819L15.4781 7.43553C15.1625 7.75111 15.1625 8.26278 15.4782 8.57837C15.636 8.7361 15.8428 8.81497 16.0496 8.81497C16.2564 8.81497 16.4632 8.73599 16.6211 8.57826L21.8249 3.37412V6.81977C21.8249 7.26605 22.1866 7.62785 22.633 7.62785C23.0793 7.62785 23.441 7.26605 23.441 6.81977V1.42331C23.4409 0.97693 23.0791 0.615234 22.6329 0.615234Z" fill="#7C5832"/>
</g>
<defs>
<clipPath id="clip0_72_3374">
<rect width="23.2026" height="23.2026" fill="white" transform="translate(0.23877 0.615234)"/>
</clipPath>
</defs>
</svg>
