<svg width="15" height="15" viewBox="0 0 15 15" fill="none" xmlns="http://www.w3.org/2000/svg">
<path d="M13.5866 5.82031C13.3434 5.48926 12.9684 5.29883 12.5582 5.29883H12.2477V4.46387C12.2477 3.76074 11.6764 3.18945 10.9703 3.18945H7.24378C7.02992 3.18945 6.82484 3.10449 6.67249 2.95508L6.08656 2.37207C5.84632 2.13184 5.52699 2 5.18714 2H2.27503C1.57191 2 1.00062 2.57129 1.00062 3.27734V10.71C0.99183 10.9941 1.07679 11.2754 1.24964 11.5098C1.49574 11.8437 1.87367 12.0371 2.28968 12.0371H11.2516C11.8112 12.0371 12.3004 11.6768 12.4703 11.1406L13.7799 6.9541C13.9 6.56445 13.8297 6.15137 13.5866 5.82031ZM1.46644 3.27734C1.46644 2.83203 1.82972 2.46875 2.2721 2.46875H5.18714C5.40101 2.46875 5.60316 2.55371 5.75843 2.70312L6.34437 3.28613C6.5846 3.52637 6.90394 3.6582 7.24378 3.6582H10.9733C11.4186 3.6582 11.7819 4.02148 11.7819 4.46387V5.29883H3.57874C3.01917 5.29883 2.52992 5.65918 2.35999 6.19238L1.46351 9.05176V3.27734H1.46644ZM13.3287 6.81641L12.0192 11.0029C11.9137 11.3428 11.6032 11.5684 11.2487 11.5684H2.28675C2.02308 11.5684 1.78285 11.4453 1.62464 11.2344C1.46937 11.0205 1.42249 10.7539 1.5016 10.502L2.80531 6.33301C2.91077 5.99316 3.22132 5.76758 3.57581 5.76758H12.5553C12.816 5.76758 13.0534 5.8877 13.2057 6.0957C13.3639 6.30664 13.4078 6.56738 13.3287 6.81641Z" fill="#7C5832" stroke="#7C5832" stroke-width="0.25"/>
</svg>
