<svg width="29" height="28" viewBox="0 0 29 28" fill="none" xmlns="http://www.w3.org/2000/svg">
<g clip-path="url(#clip0_43_1705)">
<path d="M17.931 20.8271C17.5028 20.3989 17.5028 19.7049 17.931 19.2768L21.0315 16.1763C21.4596 15.7482 22.1536 15.7482 22.5817 16.1763C23.0098 16.6044 23.0098 17.2985 22.5817 17.7265L19.4812 20.8271C19.0532 21.2551 18.3591 21.2552 17.931 20.8271Z" fill="#7C5832"/>
<path d="M24.132 20.8277C23.7039 20.3996 23.7039 19.7055 24.132 19.2775L24.9071 18.5023C26.1923 17.2172 26.1924 15.1369 24.9071 13.8516C23.6219 12.5664 21.5417 12.5663 20.2564 13.8516L19.4812 14.6267C19.053 15.0548 18.359 15.0548 17.9309 14.6267C17.5028 14.1986 17.5028 13.5045 17.9309 13.0765L18.7061 12.3014C20.848 10.1595 24.3151 10.1591 26.4573 12.3014C28.5992 14.4433 28.5995 17.9103 26.4573 20.0526L25.6822 20.8277C25.2542 21.2557 24.5601 21.2557 24.132 20.8277Z" fill="#7C5832"/>
<path d="M14.0553 24.7026C11.9133 22.5607 11.9131 19.0936 14.0553 16.9514L14.8304 16.1763C15.2585 15.7482 15.9526 15.7482 16.3806 16.1763C16.8087 16.6044 16.8088 17.2985 16.3806 17.7265L15.6055 18.5017C14.3204 19.7868 14.3202 21.8671 15.6055 23.1524C16.8877 24.4346 18.974 24.4346 20.2563 23.1524L21.0314 22.3773C21.4595 21.9492 22.1535 21.9492 22.5816 22.3773C23.0097 22.8054 23.0097 23.4994 22.5816 23.9275L21.8065 24.7026C19.6695 26.8396 16.1924 26.8397 14.0553 24.7026Z" fill="#7C5832"/>
<path d="M9.44185 19.7314H3.28856C1.47525 19.7314 0 18.2561 0 16.4428V3.28856C0 1.47525 1.47525 0 3.28856 0H8.51913C9.39751 0 10.2234 0.342065 10.8445 0.963165L12.0736 2.19237H18.1967C20.01 2.19237 21.4853 3.66762 21.4853 5.48094V7.68795C21.4853 8.29337 20.9945 8.78413 20.3891 8.78413C19.7837 8.78413 19.2929 8.29337 19.2929 7.68795V5.48094C19.2929 4.8765 18.8011 4.38475 18.1967 4.38475H11.6196C11.3289 4.38475 11.05 4.26927 10.8445 4.06368L9.29424 2.51345C9.08723 2.30643 8.81192 2.19237 8.51913 2.19237H3.28856C2.68412 2.19237 2.19237 2.68412 2.19237 3.28856V16.4428C2.19237 17.0472 2.68412 17.539 3.28856 17.539H9.44185C10.0473 17.539 10.538 18.0298 10.538 18.6352C10.538 19.2406 10.0472 19.7314 9.44185 19.7314Z" fill="#7C5832"/>
</g>
<defs>
<clipPath id="clip0_43_1705">
<rect width="29" height="27.9643" fill="white"/>
</clipPath>
</defs>
</svg>
