<svg width="28" height="27" viewBox="0 0 28 27" fill="none" xmlns="http://www.w3.org/2000/svg">
<path d="M26.4597 0.668457H2.97092C2.42115 0.668457 1.97559 1.11403 1.97559 1.66379C1.97559 4.43557 3.16377 7.08176 5.23551 8.92333L9.59457 12.7978C10.3504 13.4696 10.7839 14.435 10.7839 15.4465V25.1526C10.7839 25.9457 11.6704 26.4212 12.3312 25.9805L18.2035 22.0658C18.4803 21.8812 18.6467 21.5705 18.6467 21.2377V15.4465C18.6467 14.435 19.0802 13.4696 19.836 12.7978L24.1949 8.92333C26.2666 7.08176 27.4548 4.43557 27.4548 1.66379C27.4548 1.11403 27.0093 0.668457 26.4597 0.668457ZM22.8724 7.43538L18.5135 11.31C17.3331 12.3594 16.656 13.867 16.656 15.4463V20.705L12.7744 23.2927V15.4465C12.7744 13.867 12.0973 12.3594 10.9169 11.31L6.55802 7.43558C5.16105 6.19354 4.26933 4.49175 4.03061 2.65893H25.3998C25.1611 4.49175 24.2696 6.19354 22.8724 7.43538Z" fill="#7C5832"/>
<path fill-rule="evenodd" clip-rule="evenodd" d="M5.05437 9.12685C2.92454 7.23364 1.70312 4.51343 1.70312 1.66393C1.70312 0.963881 2.27052 0.396484 2.97057 0.396484H26.4593C27.1592 0.396484 27.7266 0.963915 27.7266 1.66393C27.7266 4.51343 26.5052 7.23364 24.3753 9.12685L20.0165 13.0013C19.3187 13.6215 18.9184 14.5129 18.9184 15.4466V21.2378C18.9184 21.6617 18.7065 22.0573 18.3541 22.2923L12.4818 26.207C11.6399 26.7685 10.5115 26.1629 10.5115 25.1527V15.4466C10.5115 14.5129 10.1112 13.6215 9.41345 13.0013C9.41345 13.0013 9.41345 13.0013 9.41345 13.0013L5.05437 9.12685ZM9.59422 12.7979C10.3501 13.4697 10.7836 14.4351 10.7836 15.4466V25.1527C10.7836 25.9459 11.67 26.4214 12.3308 25.9806L18.2031 22.066C18.4799 21.8813 18.6463 21.5707 18.6463 21.2378V15.4466C18.6463 14.4351 19.0799 13.4697 19.8357 12.7979L24.1946 8.92347C26.2663 7.0819 27.4545 4.43571 27.4545 1.66393C27.4545 1.11416 27.0089 0.668594 26.4593 0.668594H2.97057C2.4208 0.668594 1.97524 1.11416 1.97524 1.66393C1.97524 4.43571 3.16342 7.0819 5.23516 8.92347L9.59422 12.7979ZM18.3324 11.1068L22.6913 7.23214C23.9607 6.10384 24.7976 4.58178 25.0831 2.93118H4.34665C4.63216 4.58176 5.46919 6.10385 6.73847 7.23236L11.0973 11.1068C12.3358 12.2078 13.0462 13.7894 13.0462 15.4466V22.7844L16.3836 20.5595V15.4464C16.3836 13.7894 17.0939 12.2078 18.3324 11.1068ZM16.6557 20.7052L12.774 23.2929V15.4466C12.774 13.8671 12.0969 12.3595 10.9165 11.3101L6.55767 7.43571C5.23009 6.25538 4.35881 4.65982 4.07064 2.93118C4.05558 2.84083 4.04211 2.75011 4.03025 2.65907H25.3995C25.3876 2.75011 25.3741 2.84083 25.3591 2.93118C25.0709 4.65982 24.1998 6.25537 22.872 7.43552L18.5132 11.3101C17.3328 12.3595 16.6557 13.8671 16.6557 15.4464V20.7052Z" fill="#7C5832"/>
</svg>
