<svg width="28" height="29" viewBox="0 0 28 29" fill="none" xmlns="http://www.w3.org/2000/svg">
<g clip-path="url(#clip0_37_12489)">
<path d="M23.5633 15.4531H21.449C21.6645 16.0432 21.7822 16.68 21.7822 17.3436V25.3347C21.7822 25.6114 21.7341 25.8771 21.6464 26.1241H25.142C26.4477 26.1241 27.51 25.0618 27.51 23.7561V19.3998C27.51 17.2236 25.7395 15.4531 23.5633 15.4531Z" fill="#7C5832"/>
<path d="M5.89772 17.3436C5.89772 16.6799 6.01546 16.0432 6.23098 15.4531H4.11661C1.9404 15.4531 0.169922 17.2236 0.169922 19.3998V23.7561C0.169922 25.0618 1.23218 26.1241 2.53793 26.1241H6.03351C5.94588 25.877 5.89772 25.6114 5.89772 25.3347V17.3436Z" fill="#7C5832"/>
<path d="M16.2567 13.397H11.423C9.2468 13.397 7.47632 15.1675 7.47632 17.3437V25.3348C7.47632 25.7706 7.82971 26.1241 8.26566 26.1241H19.4141C19.85 26.1241 20.2034 25.7707 20.2034 25.3348V17.3437C20.2034 15.1675 18.433 13.397 16.2567 13.397Z" fill="#7C5832"/>
<path d="M13.8399 2.93213C11.2227 2.93213 9.09351 5.06134 9.09351 7.67856C9.09351 9.4538 10.0733 11.0042 11.5203 11.8182C12.2066 12.2043 12.9979 12.4249 13.8399 12.4249C14.6819 12.4249 15.4731 12.2043 16.1595 11.8182C17.6065 11.0042 18.5863 9.45375 18.5863 7.67856C18.5863 5.0614 16.4571 2.93213 13.8399 2.93213Z" fill="#7C5832"/>
<path d="M5.50548 7.3562C3.54816 7.3562 1.95581 8.94855 1.95581 10.9059C1.95581 12.8632 3.54816 14.4555 5.50548 14.4555C6.00198 14.4555 6.47477 14.3527 6.90425 14.1678C7.64681 13.8481 8.25908 13.2822 8.63794 12.5733C8.90387 12.0758 9.05515 11.5083 9.05515 10.9059C9.05515 8.9486 7.4628 7.3562 5.50548 7.3562Z" fill="#7C5832"/>
<path d="M22.1744 7.3562C20.2171 7.3562 18.6248 8.94855 18.6248 10.9059C18.6248 11.5083 18.776 12.0759 19.042 12.5733C19.4208 13.2823 20.0331 13.8482 20.7756 14.1678C21.2051 14.3527 21.6779 14.4555 22.1744 14.4555C24.1317 14.4555 25.7241 12.8632 25.7241 10.9059C25.7241 8.94855 24.1317 7.3562 22.1744 7.3562Z" fill="#7C5832"/>
</g>
<defs>
<clipPath id="clip0_37_12489">
<rect width="27.34" height="27.34" fill="white" transform="translate(0.169922 0.858154)"/>
</clipPath>
</defs>
</svg>
