<svg width="24" height="24" viewBox="0 0 24 24" fill="none" xmlns="http://www.w3.org/2000/svg">
<path d="M22.3541 3.41497H19.1543C18.7912 1.93688 17.4552 0.837011 15.8663 0.837011C14.2773 0.837011 12.9413 1.93688 12.5782 3.41497H1.64449C1.19854 3.41497 0.837011 3.77651 0.837011 4.22245C0.837011 4.6684 1.19854 5.02993 1.64449 5.02993H12.5782C12.9413 6.50803 14.2773 7.6079 15.8663 7.6079C17.4552 7.6079 18.7912 6.50803 19.1543 5.02993H22.3541C22.8001 5.02993 23.1616 4.6684 23.1616 4.22245C23.1616 3.77651 22.8001 3.41497 22.3541 3.41497ZM15.8663 5.99294C14.8913 5.99294 14.0977 5.20046 14.0958 4.22597C14.0958 4.22483 14.0958 4.22366 14.0958 4.22245C14.0958 4.22125 14.0958 4.22008 14.0958 4.21894C14.0977 3.24445 14.8913 2.45197 15.8663 2.45197C16.8424 2.45197 17.6367 3.24635 17.6367 4.22245C17.6367 5.19855 16.8424 5.99294 15.8663 5.99294Z" fill="#7C5832" stroke="#7C5832" stroke-width="0.325978"/>
<path d="M22.3541 11.1918H11.4204C11.0574 9.71373 9.72133 8.61387 8.13237 8.61387C6.5434 8.61387 5.20742 9.71373 4.84434 11.1918H1.64449C1.19854 11.1918 0.837011 11.5534 0.837011 11.9993C0.837011 12.4453 1.19854 12.8068 1.64449 12.8068H4.84434C5.20738 14.2849 6.54341 15.3848 8.13237 15.3848C9.72133 15.3848 11.0573 14.2849 11.4204 12.8068H22.3541C22.8001 12.8068 23.1616 12.4453 23.1616 11.9993C23.1616 11.5534 22.8001 11.1918 22.3541 11.1918ZM8.13237 13.7698C7.15742 13.7698 6.36379 12.9773 6.36189 12.0028C6.36191 12.0017 6.36193 12.0005 6.36193 11.9993C6.36193 11.9981 6.36191 11.9969 6.36189 11.9958C6.36379 11.0213 7.15742 10.2288 8.13237 10.2288C9.10847 10.2288 9.90285 11.0232 9.90285 11.9993C9.90285 12.9754 9.10847 13.7698 8.13237 13.7698Z" fill="#7C5832" stroke="#7C5832" stroke-width="0.325978"/>
<path d="M22.3541 18.9702H19.1543C18.7912 17.4921 17.4552 16.3922 15.8663 16.3922C14.2773 16.3922 12.9413 17.4921 12.5782 18.9702H1.64449C1.19854 18.9702 0.837011 19.3317 0.837011 19.7776C0.837011 20.2236 1.19854 20.5851 1.64449 20.5851H12.5782C12.9413 22.0632 14.2773 23.1631 15.8663 23.1631C17.4552 23.1631 18.7912 22.0632 19.1543 20.5851H22.3541C22.8001 20.5851 23.1616 20.2236 23.1616 19.7776C23.1616 19.3317 22.8001 18.9702 22.3541 18.9702ZM15.8663 21.5481C14.8913 21.5481 14.0977 20.7556 14.0958 19.7811C14.0958 19.78 14.0958 19.7788 14.0958 19.7776C14.0958 19.7764 14.0958 19.7753 14.0958 19.7741C14.0977 18.7996 14.8913 18.0071 15.8663 18.0071C16.8424 18.0071 17.6367 18.8015 17.6367 19.7776C17.6367 20.7537 16.8424 21.5481 15.8663 21.5481Z" fill="#7C5832" stroke="#7C5832" stroke-width="0.325978"/>
</svg>
