<svg width="34" height="32" viewBox="0 0 34 32" fill="none" xmlns="http://www.w3.org/2000/svg">
<g clip-path="url(#clip0_37_12519)">
<path d="M20.6259 23.5241C20.1436 23.0418 20.1436 22.2599 20.6259 21.7777L24.1186 18.285C24.6008 17.8028 25.3827 17.8028 25.8649 18.285C26.3471 18.7673 26.3472 19.5492 25.8649 20.0314L22.3722 23.5241C21.89 24.0062 21.1082 24.0063 20.6259 23.5241Z" fill="#7C5832"/>
<path d="M27.6113 23.5247C27.129 23.0424 27.129 22.2606 27.6113 21.7784L28.4844 20.9052C29.9322 19.4575 29.9324 17.1141 28.4844 15.6662C27.0367 14.2185 24.6933 14.2183 23.2454 15.6662L22.3722 16.5393C21.8899 17.0216 21.108 17.0216 20.6258 16.5393C20.1436 16.0571 20.1436 15.2752 20.6258 14.793L21.499 13.9199C23.9119 11.507 27.8175 11.5067 30.2307 13.9199C32.6436 16.3327 32.6439 20.2383 30.2307 22.6515L29.3575 23.5247C28.8754 24.0069 28.0935 24.0069 27.6113 23.5247Z" fill="#7C5832"/>
<path d="M16.26 27.8899C13.8471 25.477 13.8468 21.5713 16.26 19.1582L17.1331 18.285C17.6154 17.8028 18.3972 17.8028 18.8795 18.285C19.3617 18.7673 19.3617 19.5492 18.8795 20.0314L18.0063 20.9045C16.5586 22.3523 16.5584 24.6956 18.0063 26.1435C19.4507 27.5879 21.8009 27.5879 23.2453 26.1435L24.1185 25.2704C24.6007 24.7881 25.3826 24.7882 25.8648 25.2704C26.3471 25.7527 26.3471 26.5345 25.8648 27.0167L24.9916 27.8899C22.5843 30.2971 18.6674 30.2973 16.26 27.8899Z" fill="#7C5832"/>
<path d="M11.0634 22.2897H4.13178C2.0891 22.2897 0.427246 20.6279 0.427246 18.5852V3.76704C0.427246 1.72436 2.0891 0.0625 4.13178 0.0625H10.024C11.0135 0.0625 11.9438 0.447834 12.6435 1.1475L14.0281 2.53219H20.9257C22.9684 2.53219 24.6302 4.19405 24.6302 6.23673V8.72291C24.6302 9.40491 24.0774 9.95775 23.3954 9.95775C22.7134 9.95775 22.1605 9.40491 22.1605 8.72291V6.23673C22.1605 5.55584 21.6066 5.00188 20.9257 5.00188H13.5166C13.1891 5.00188 12.875 4.87179 12.6435 4.6402L10.8971 2.89388C10.6639 2.66068 10.3538 2.53219 10.024 2.53219H4.13178C3.45089 2.53219 2.89694 3.08614 2.89694 3.76704V18.5852C2.89694 19.2661 3.45089 19.82 4.13178 19.82H11.0634C11.7454 19.82 12.2983 20.3729 12.2983 21.0549C12.2983 21.7369 11.7454 22.2897 11.0634 22.2897Z" fill="#7C5832"/>
</g>
<defs>
<clipPath id="clip0_37_12519">
<rect width="32.6683" height="31.5015" fill="white" transform="translate(0.427246 0.0625)"/>
</clipPath>
</defs>
</svg>
