<svg width="28" height="28" viewBox="0 0 28 28" fill="none" xmlns="http://www.w3.org/2000/svg">
<path d="M23.2378 20.4496C24.575 18.5724 24.4118 15.9604 22.7283 14.2769C20.9233 12.4719 17.735 12.4712 15.9325 14.2769C14.0533 16.1545 14.0542 19.1961 15.9325 21.0727C17.6162 22.7578 20.2289 22.9185 22.1052 21.5822L26.2076 25.5891L27.3402 24.4564L23.2378 20.4496Z" fill="#7C5832"/>
<path d="M14.5244 0.469238V6.46115H20.4629L14.5244 0.469238Z" fill="#7C5832"/>
<path d="M19.3295 24.0836C17.618 24.0836 16.009 23.4164 14.7989 22.2047C12.2937 19.7027 12.2932 15.6477 14.8005 13.1436C16.2292 11.712 18.4938 10.9343 20.9322 11.5407V8.06319H12.9225V0H0V27.3401H20.9323V23.8566C20.4126 23.9906 19.8804 24.0836 19.3295 24.0836ZM3.20392 9.66515H14.5244V11.2671H3.20392V9.66515ZM11.3205 20.8789H3.20392V19.2769H11.3205V20.8789ZM11.3205 17.6749H3.20392V16.073H11.3205V17.6749ZM11.3205 14.471H3.20392V12.8691H11.3205V14.471Z" fill="#7C5832"/>
</svg>
