<svg width="28" height="29" viewBox="0 0 28 29" fill="none" xmlns="http://www.w3.org/2000/svg">
<g clip-path="url(#clip0_38_1412)">
<path d="M18.3441 11.7317C20.1567 10.0791 22.608 7.84398 22.8314 2.5043H24.4499V0.902344H3.62451V2.5043H5.24296C5.46638 7.84398 7.91769 10.0791 9.73036 11.7317C10.9463 12.8403 11.6343 13.5188 11.6343 14.5723C11.6343 15.6258 10.9463 16.3044 9.73036 17.413C7.91769 19.0656 5.46638 21.3007 5.24296 26.6404H3.62451V28.2423H24.4499V26.6404H22.8314C22.608 21.3007 20.1567 19.0656 18.3441 17.413C17.1281 16.3044 16.4401 15.6258 16.4401 14.5723C16.4401 13.5188 17.1281 12.8403 18.3441 11.7317ZM13.2362 20.5764C12.9888 20.6274 12.7444 20.7017 12.5059 20.8004L7.59981 22.8305C8.401 20.7934 9.69143 19.6163 10.8096 18.5968C12.0576 17.4591 13.2362 16.3844 13.2362 14.5723V20.5764ZM17.2648 18.5968C18.383 19.6163 19.6734 20.7934 20.4746 22.8305L15.5685 20.8003C15.33 20.7016 15.0856 20.6274 14.8382 20.5763V14.5723C14.8382 16.3844 16.0168 17.4591 17.2648 18.5968ZM7.57167 6.24219C7.18437 5.23301 6.9169 4.01451 6.84689 2.5043H21.2275C21.1575 4.01451 20.89 5.23301 20.5027 6.24219H7.57167Z" fill="#7C5832"/>
</g>
<defs>
<clipPath id="clip0_38_1412">
<rect width="27.34" height="27.34" fill="white" transform="translate(0.367188 0.902344)"/>
</clipPath>
</defs>
</svg>
