<svg width="30" height="30" viewBox="0 0 30 30" fill="none" xmlns="http://www.w3.org/2000/svg">
<g clip-path="url(#clip0_147_5566)">
<path d="M26.5666 8.26367H19.221C17.7307 8.26367 16.5273 9.46988 16.5273 10.9574V26.5669C16.5273 28.0571 17.7334 29.2606 19.221 29.2606H26.5666C28.0569 29.2605 29.2603 28.0544 29.2603 26.5668V10.9574C29.2603 9.46713 28.0541 8.26367 26.5666 8.26367ZM23.8121 11.9365H21.9756C21.5022 11.9365 21.1184 11.5526 21.1184 11.0792C21.1184 10.6058 21.5022 10.222 21.9756 10.222H23.8121C24.2855 10.222 24.6693 10.6058 24.6693 11.0792C24.6693 11.5526 24.2855 11.9365 23.8121 11.9365Z" fill="#7C5832"/>
<path d="M9.18236 23.8732H7.28498C6.81155 23.8732 6.42773 24.257 6.42773 24.7305C6.42773 25.2039 6.81155 25.5877 7.28498 25.5877H14.8135V21.793H9.1823V23.8732H9.18236Z" fill="#7C5832"/>
<path d="M26.567 6.54938C26.8603 6.54938 27.1469 6.57881 27.4243 6.63373V2.69365C27.4243 1.20838 26.2159 0 24.7306 0H2.69365C1.20838 0 0 1.20843 0 2.6937V17.385C0 18.8703 1.20838 20.0786 2.69365 20.0786H14.8133V10.9576C14.8133 8.52688 16.7908 6.54932 19.2214 6.54932L26.567 6.54938Z" fill="#7C5832"/>
</g>
<defs>
<clipPath id="clip0_147_5566">
<rect width="29.2607" height="29.2607" fill="white"/>
</clipPath>
</defs>
</svg>
