<svg width="22" height="21" viewBox="0 0 22 21" fill="none" xmlns="http://www.w3.org/2000/svg">
<path d="M7.20045 6.89922L10.0298 4.07001V15.7829C10.0298 16.3108 10.4579 16.7388 10.9858 16.7388C11.5138 16.7388 11.9418 16.3108 11.9418 15.7829V4.07007L14.7709 6.89922C14.9576 7.08589 15.2023 7.17926 15.4469 7.17926C15.6915 7.17926 15.9362 7.08595 16.1229 6.89922C16.4962 6.52589 16.4962 5.92063 16.1229 5.54729L11.662 1.08638C11.6396 1.06401 11.6161 1.04285 11.5916 1.02277C11.5811 1.0141 11.5699 1.00658 11.5591 0.99849C11.545 0.987847 11.5312 0.977013 11.5164 0.967134C11.5032 0.958276 11.4895 0.950628 11.476 0.942534C11.4628 0.934568 11.4498 0.926346 11.4362 0.919017C11.4224 0.911625 11.4082 0.905443 11.3941 0.898751C11.3799 0.892059 11.366 0.884985 11.3514 0.878931C11.3377 0.873322 11.3238 0.868734 11.31 0.863763C11.2945 0.858154 11.2791 0.852164 11.2631 0.84732C11.2493 0.843177 11.2354 0.840182 11.2216 0.836677C11.2052 0.832534 11.1891 0.827946 11.1725 0.824632C11.1566 0.821509 11.1404 0.819661 11.1244 0.817303C11.1096 0.815136 11.0951 0.812395 11.0801 0.81093C11.0506 0.808062 11.0211 0.806659 10.9916 0.806468C10.9896 0.806468 10.9878 0.806213 10.9859 0.806213C10.984 0.806213 10.9821 0.806468 10.9803 0.806468C10.9507 0.806596 10.9211 0.808062 10.8916 0.81093C10.877 0.812395 10.8628 0.815072 10.8483 0.817175C10.8318 0.819533 10.8154 0.821445 10.7991 0.824695C10.783 0.827882 10.7673 0.832343 10.7514 0.836358C10.737 0.839991 10.7226 0.843177 10.7083 0.847447C10.693 0.8521 10.678 0.857899 10.663 0.863316C10.6486 0.868479 10.6341 0.873195 10.62 0.879058C10.606 0.884857 10.5926 0.891677 10.579 0.898114C10.5643 0.904997 10.5495 0.911561 10.5351 0.919209C10.5221 0.926155 10.5099 0.934058 10.4972 0.941578C10.483 0.949991 10.4687 0.958021 10.4549 0.967262C10.441 0.976503 10.4281 0.986827 10.4148 0.996706C10.4031 1.00544 10.3911 1.01353 10.3798 1.0229C10.3565 1.04195 10.3343 1.06216 10.3129 1.08325C10.3119 1.08427 10.3108 1.0851 10.3098 1.08612L5.84858 5.54723C5.47531 5.92057 5.47525 6.52582 5.84858 6.89916C6.22185 7.27256 6.82717 7.27243 7.20045 6.89922Z" fill="white"/>
<path d="M20.5455 10.3659C20.0175 10.3659 19.5895 10.7939 19.5895 11.3218V18.6509H2.38215V11.3218C2.38215 10.7939 1.95413 10.3659 1.42618 10.3659C0.898233 10.3659 0.470215 10.7939 0.470215 11.3218V19.6069C0.470215 20.1348 0.898233 20.5628 1.42618 20.5628H20.5455C21.0734 20.5628 21.5015 20.1348 21.5015 19.6069V11.3218C21.5015 10.7939 21.0734 10.3659 20.5455 10.3659Z" fill="white"/>
</svg>
