<svg width="26" height="30" viewBox="0 0 26 30" fill="none" xmlns="http://www.w3.org/2000/svg">
<g clip-path="url(#clip0_37_12521)">
<path d="M8.20658 10.5294L11.6515 7.08468V21.3457C11.6515 21.9885 12.1727 22.5097 12.8155 22.5097C13.4583 22.5097 13.9794 21.9885 13.9794 21.3457V7.08476L17.424 10.5294C17.6513 10.7567 17.9492 10.8704 18.247 10.8704C18.5449 10.8704 18.8428 10.7568 19.0701 10.5294C19.5246 10.0748 19.5246 9.33791 19.0701 8.88335L13.6388 3.45195C13.6114 3.42472 13.5828 3.39895 13.5531 3.37451C13.5402 3.36396 13.5266 3.3548 13.5135 3.34495C13.4963 3.33199 13.4795 3.3188 13.4615 3.30677C13.4455 3.29598 13.4288 3.28667 13.4123 3.27682C13.3962 3.26712 13.3804 3.25711 13.3638 3.24818C13.347 3.23918 13.3298 3.23166 13.3125 3.22351C13.2952 3.21536 13.2783 3.20675 13.2606 3.19938C13.244 3.19255 13.227 3.18696 13.2102 3.18091C13.1913 3.17408 13.1726 3.16679 13.1531 3.16089C13.1363 3.15585 13.1193 3.1522 13.1025 3.14793C13.0826 3.14289 13.0629 3.1373 13.0427 3.13327C13.0233 3.12946 13.0037 3.12721 12.9842 3.12434C12.9662 3.1217 12.9485 3.11837 12.9302 3.11658C12.8944 3.11309 12.8585 3.11138 12.8224 3.11115C12.8201 3.11115 12.8179 3.11084 12.8155 3.11084C12.8133 3.11084 12.811 3.11115 12.8087 3.11115C12.7727 3.11131 12.7367 3.11309 12.7008 3.11658C12.683 3.11837 12.6656 3.12163 12.648 3.12419C12.628 3.12706 12.608 3.12939 12.5882 3.13334C12.5685 3.13722 12.5494 3.14265 12.5301 3.14754C12.5125 3.15197 12.495 3.15585 12.4776 3.16104C12.4589 3.16671 12.4407 3.17377 12.4224 3.18037C12.4049 3.18665 12.3873 3.19239 12.3701 3.19953C12.353 3.20659 12.3367 3.2149 12.3201 3.22273C12.3022 3.23111 12.2842 3.23911 12.2667 3.24842C12.2509 3.25688 12.236 3.2665 12.2205 3.27565C12.2032 3.2859 12.1859 3.29567 12.169 3.30692C12.1522 3.31818 12.1364 3.33075 12.1202 3.34277C12.1059 3.3534 12.0914 3.36326 12.0776 3.37467C12.0493 3.39787 12.0222 3.42247 11.9962 3.44815C11.995 3.44939 11.9936 3.4504 11.9923 3.45164L6.56062 8.88328C6.10614 9.33783 6.10606 10.0748 6.56062 10.5293C7.01509 10.984 7.7521 10.9838 8.20658 10.5294Z" fill="#7C5832"/>
<path d="M24.4549 14.7507C23.8121 14.7507 23.291 15.2719 23.291 15.9147V24.8382H2.34008V15.9147C2.34008 15.2719 1.81895 14.7507 1.17615 14.7507C0.533341 14.7507 0.012207 15.2719 0.012207 15.9147V26.0021C0.012207 26.6449 0.533341 27.1661 1.17615 27.1661H24.4549C25.0977 27.1661 25.6189 26.6449 25.6189 26.0021V15.9147C25.6189 15.2719 25.0977 14.7507 24.4549 14.7507Z" fill="#7C5832"/>
</g>
<defs>
<clipPath id="clip0_37_12521">
<rect width="25.6679" height="29.1681" fill="white" transform="translate(0.012207 0.777344)"/>
</clipPath>
</defs>
</svg>
